<mxfile host="app.diagrams.net" modified="2023-05-18T19:55:25.430Z" agent="Mozilla/5.0 (Macintosh; Intel Mac OS X 10_15_7) AppleWebKit/537.36 (KHTML, like Gecko) Chrome/113.0.0.0 Safari/537.36" version="21.1.8" etag="8u3bCGMMSWUyCixl5t2Q" type="github">
  <diagram name="第 1 页" id="BW_V5DkRa69Us3zTl_8v">
    <mxGraphModel>
      <root>
        <mxCell id="0" />
        <mxCell id="1" parent="0" />
      </root>
    </mxGraphModel>
  </diagram>
</mxfile>
